<svg width="30" height="30" fill="none" xmlns="http://www.w3.org/2000/svg"><path d="M5.625 16.25A3.13 3.13 0 002.5 19.375 3.13 3.13 0 005.625 22.5a3.13 3.13 0 003.125-3.125 3.13 3.13 0 00-3.125-3.125zm0 5a1.877 1.877 0 01-1.875-1.875c0-1.034.841-1.875 1.875-1.875s1.875.841 1.875 1.875a1.877 1.877 0 01-1.875 1.875zm18.75-5a3.13 3.13 0 00-3.125 3.125 3.13 3.13 0 003.125 3.125 3.13 3.13 0 003.125-3.125 3.13 3.13 0 00-3.125-3.125zm0 5a1.877 1.877 0 01-1.875-1.875c0-1.034.841-1.875 1.875-1.875s1.875.841 1.875 1.875a1.877 1.877 0 01-1.875 1.875z" fill="#000"/><path d="M26.25 12.5h-1.058c-.386 0-.765-.133-1.067-.375L19.2 8.185a3.142 3.142 0 00-1.953-.685H8.213c-1.048 0-2.02.52-2.6 1.391L4.549 10.49a1.711 1.711 0 01-1.424.761A3.13 3.13 0 000 14.375v2.5A3.13 3.13 0 003.125 20a.625.625 0 000-1.25 1.877 1.877 0 01-1.875-1.875v-2.5c0-1.034.841-1.875 1.875-1.875.992 0 1.912-.492 2.464-1.319l1.063-1.596a1.873 1.873 0 011.56-.835h9.035c.425 0 .84.146 1.173.411l4.925 3.939c.521.419 1.179.65 1.849.65h1.056c1.834 0 2.5 1.869 2.5 3.125 0 1.231-.942 1.875-1.875 1.875a.625.625 0 000 1.25C28.656 20 30 18.656 30 16.875c0-2.121-1.314-4.375-3.75-4.375z" fill="#000"/><path d="M21.875 18.75H8.125a.625.625 0 000 1.25h13.75a.625.625 0 000-1.25zm-1.25-6.25H15v-1.875a.625.625 0 00-1.25 0v2.5c0 .345.28.625.625.625h6.25a.625.625 0 000-1.25zm-8.75 0H7.886l.799-1.595a.626.626 0 00-1.119-.559l-1.25 2.5a.623.623 0 00.559.904h5a.625.625 0 000-1.25zm5 2.5h-1.25a.625.625 0 000 1.25h1.25a.625.625 0 000-1.25z" fill="#000"/></svg>