<svg width="30" height="30" fill="none" xmlns="http://www.w3.org/2000/svg"><g clip-path="url(#clip0)" fill="#000"><path d="M21.875 30a.62.62 0 01-.374-.125c-.316-.235-7.751-5.837-7.751-10.336a4.54 4.54 0 018.125-2.785A4.537 4.537 0 0125.462 15 4.543 4.543 0 0130 19.539c0 4.5-7.435 10.101-7.751 10.337a.627.627 0 01-.374.124zm-3.587-13.75A3.293 3.293 0 0015 19.539c0 3.036 4.654 7.31 6.875 9.048 2.22-1.74 6.875-6.016 6.875-9.048a3.293 3.293 0 00-3.288-3.289 3.28 3.28 0 00-3.013 1.971c-.198.456-.949.456-1.147 0a3.284 3.284 0 00-3.014-1.971z"/><path d="M11.875 25H6.25a2.502 2.502 0 01-2.5-2.5v-8.75h-2.5C.549 13.75 0 13.201 0 12.5c0-.351.152-.699.407-.928L12.7.168a.625.625 0 01.85 0L17.5 3.83V1.875c0-.345.28-.625.625-.625h3.75c.345 0 .625.28.625.625v6.59l3.35 3.114a.626.626 0 01-.851.915l-3.55-3.3a.621.621 0 01-.199-.457V2.5h-2.5v2.763a.624.624 0 01-1.05.457l-4.575-4.242L1.25 12.494l3.125.005c.345 0 .625.28.625.625V22.5c0 .69.561 1.25 1.25 1.25h5.625a.625.625 0 010 1.25z"/></g><defs><clipPath id="clip0"><path fill="#fff" d="M0 0h30v30H0z"/></clipPath></defs></svg>