<svg width="38" height="34" fill="none" xmlns="http://www.w3.org/2000/svg"><g filter="url(#filter0_d)"><path d="M28.527 19.728a2.77 2.77 0 00-1.955.806 2.729 2.729 0 00-.819 1.943c0 .733.287 1.417.819 1.943a2.78 2.78 0 001.955.806c1.502 0 2.724-1.234 2.724-2.749 0-1.515-1.222-2.749-2.724-2.749zm0 4.276c-.843 0-1.552-.696-1.552-1.527 0-.83.709-1.527 1.552-1.527.83 0 1.502.684 1.502 1.527 0 .843-.672 1.527-1.502 1.527zm.708-13.433a.593.593 0 00-.41-.159h-3.133a.613.613 0 00-.61.611v5.01c0 .335.274.61.61.61h4.973c.336 0 .61-.275.61-.61v-3.354a.611.611 0 00-.201-.452l-1.839-1.656zm.819 4.85h-3.751v-3.793h2.285l1.466 1.32v2.473zm-16.445 4.307a2.77 2.77 0 00-1.955.806 2.729 2.729 0 00-.818 1.943c0 .733.287 1.417.818 1.943a2.783 2.783 0 001.955.806c1.503 0 2.725-1.234 2.725-2.749 0-1.515-1.222-2.749-2.725-2.749zm0 4.276c-.843 0-1.552-.696-1.552-1.527 0-.83.709-1.527 1.552-1.527.83 0 1.503.684 1.503 1.527 0 .843-.672 1.527-1.503 1.527zM9.535 20.48H8.307v-1.625a.613.613 0 00-.611-.611.613.613 0 00-.611.61v2.236c0 .336.275.611.61.611h1.84c.335 0 .61-.275.61-.61a.613.613 0 00-.61-.611zm3.097-3.33a.613.613 0 00-.611-.61H4.61a.613.613 0 00-.611.61c0 .336.275.611.61.611h7.41a.609.609 0 00.612-.61zM5.85 14.945l7.41.043c.336 0 .61-.269.617-.605a.605.605 0 00-.605-.617l-7.41-.043h-.006a.607.607 0 00-.61.605.605.605 0 00.604.617zm1.246-2.773h7.41c.336 0 .61-.275.61-.611a.613.613 0 00-.61-.611h-7.41a.613.613 0 00-.61.61c0 .337.274.612.61.612zm26.677-.825L29.4 7.725a.601.601 0 00-.39-.141h-5.144v-2.2a.613.613 0 00-.611-.61H7.695a.613.613 0 00-.61.61v4.472c0 .336.275.611.61.611a.613.613 0 00.612-.61V5.995H22.65V20.48h-5.01a.613.613 0 00-.61.61c0 .336.275.611.61.611h7.46c.336 0 .61-.275.61-.61a.613.613 0 00-.61-.611h-1.228V8.806h4.923l3.983 3.299-.042 8.362H32.1a.613.613 0 00-.61.611c0 .336.274.611.61.611h1.24a.608.608 0 00.611-.605l.049-9.26a.645.645 0 00-.226-.477z" fill="#000"/></g><defs><filter id="filter0_d" x="0" y="0" width="38" height="38" filterUnits="userSpaceOnUse" color-interpolation-filters="sRGB"><feFlood flood-opacity="0" result="BackgroundImageFix"/><feColorMatrix in="SourceAlpha" values="0 0 0 0 0 0 0 0 0 0 0 0 0 0 0 0 0 0 127 0" result="hardAlpha"/><feOffset dy="4"/><feGaussianBlur stdDeviation="2"/><feComposite in2="hardAlpha" operator="out"/><feColorMatrix values="0 0 0 0 0 0 0 0 0 0 0 0 0 0 0 0 0 0 0.25 0"/><feBlend in2="BackgroundImageFix" result="effect1_dropShadow"/><feBlend in="SourceGraphic" in2="effect1_dropShadow" result="shape"/></filter></defs></svg>