<svg width="38" height="34" viewBox="0 0 38 34" fill="none" xmlns="http://www.w3.org/2000/svg">
<g filter="url(#filter0_d)">
<path d="M28.5266 19.7282C27.7935 19.7282 27.0971 20.0153 26.5718 20.5345C26.0464 21.0599 25.7532 21.7441 25.7532 22.4771C25.7532 23.2101 26.0403 23.8943 26.5718 24.4197C27.1032 24.9389 27.7935 25.226 28.5266 25.226C30.0293 25.226 31.2511 23.9921 31.2511 22.4771C31.2511 20.9621 30.0293 19.7282 28.5266 19.7282ZM28.5266 24.0043C27.6836 24.0043 26.975 23.3079 26.975 22.4771C26.975 21.6463 27.6836 20.9499 28.5266 20.9499C29.3574 20.9499 30.0293 21.6341 30.0293 22.4771C30.0293 23.3201 29.3574 24.0043 28.5266 24.0043ZM29.2352 10.5712C29.1252 10.4673 28.9786 10.4123 28.8259 10.4123H25.6921C25.3561 10.4123 25.0812 10.6872 25.0812 11.0232V16.0324C25.0812 16.3684 25.3561 16.6433 25.6921 16.6433H30.6646C31.0006 16.6433 31.2755 16.3684 31.2755 16.0324V12.6787C31.2755 12.5076 31.2022 12.3427 31.0739 12.2266L29.2352 10.5712ZM30.0538 15.4215H26.303V11.628H28.5877L30.0538 12.9475V15.4215ZM13.609 19.7282C12.876 19.7282 12.1796 20.0153 11.6542 20.5345C11.1289 21.0599 10.8357 21.7441 10.8357 22.4771C10.8357 23.2101 11.1228 23.8943 11.6542 24.4197C12.1857 24.9389 12.876 25.226 13.609 25.226C15.1118 25.226 16.3335 23.9921 16.3335 22.4771C16.3335 20.9621 15.1118 19.7282 13.609 19.7282ZM13.609 24.0043C12.766 24.0043 12.0574 23.3079 12.0574 22.4771C12.0574 21.6463 12.766 20.9499 13.609 20.9499C14.4398 20.9499 15.1118 21.6341 15.1118 22.4771C15.1118 23.3201 14.4398 24.0043 13.609 24.0043ZM9.53451 20.4795H8.30666V18.8546C8.30666 18.5186 8.03177 18.2437 7.69579 18.2437C7.3598 18.2437 7.08491 18.5186 7.08491 18.8546V21.0904C7.08491 21.4264 7.3598 21.7013 7.69579 21.7013H9.53451C9.87049 21.7013 10.1454 21.4264 10.1454 21.0904C10.1454 20.7544 9.87049 20.4795 9.53451 20.4795ZM12.6316 17.1503C12.6316 16.8143 12.3568 16.5394 12.0208 16.5394H4.61087C4.27489 16.5394 4 16.8143 4 17.1503C4 17.4863 4.27489 17.7612 4.61087 17.7612H12.0208C12.3568 17.7612 12.6316 17.4924 12.6316 17.1503ZM5.85095 14.945L13.2608 14.9878C13.5968 14.9878 13.8717 14.719 13.8778 14.383C13.8839 14.0409 13.609 13.766 13.2731 13.766L5.86316 13.7233C5.85706 13.7233 5.85706 13.7233 5.85706 13.7233C5.52108 13.7233 5.24618 13.9921 5.24618 14.328C5.24007 14.6701 5.51497 14.945 5.85095 14.945ZM7.09713 12.1717H14.507C14.843 12.1717 15.1179 11.8968 15.1179 11.5608C15.1179 11.2248 14.843 10.9499 14.507 10.9499H7.09713C6.76115 10.9499 6.48626 11.2248 6.48626 11.5608C6.48626 11.8968 6.76115 12.1717 7.09713 12.1717ZM33.774 11.347L29.4001 7.72451C29.2902 7.63287 29.1558 7.58401 29.0092 7.58401H23.8656V5.38486C23.8656 5.04888 23.5907 4.77399 23.2547 4.77399H7.69579C7.3598 4.77399 7.08491 5.04888 7.08491 5.38486V9.85646C7.08491 10.1924 7.3598 10.4673 7.69579 10.4673C8.03177 10.4673 8.30666 10.1924 8.30666 9.85646V5.99573H22.65V20.4795H17.6408C17.3048 20.4795 17.0299 20.7544 17.0299 21.0904C17.0299 21.4264 17.3048 21.7013 17.6408 21.7013H25.0996C25.4356 21.7013 25.7104 21.4264 25.7104 21.0904C25.7104 20.7544 25.4356 20.4795 25.0996 20.4795H23.8717V8.80575H28.7954L32.7783 12.1045L32.7355 20.4673H32.1002C31.7642 20.4673 31.4893 20.7422 31.4893 21.0782C31.4893 21.4142 31.7642 21.6891 32.1002 21.6891H33.3403C33.6762 21.6891 33.9511 21.4203 33.9511 21.0843L34 11.8235C33.9939 11.6402 33.9145 11.4631 33.774 11.347Z" fill="black"/>
</g>
<defs>
<filter id="filter0_d" x="0" y="0" width="38" height="38" filterUnits="userSpaceOnUse" color-interpolation-filters="sRGB">
<feFlood flood-opacity="0" result="BackgroundImageFix"/>
<feColorMatrix in="SourceAlpha" type="matrix" values="0 0 0 0 0 0 0 0 0 0 0 0 0 0 0 0 0 0 127 0" result="hardAlpha"/>
<feOffset dy="4"/>
<feGaussianBlur stdDeviation="2"/>
<feComposite in2="hardAlpha" operator="out"/>
<feColorMatrix type="matrix" values="0 0 0 0 0 0 0 0 0 0 0 0 0 0 0 0 0 0 0.25 0"/>
<feBlend mode="normal" in2="BackgroundImageFix" result="effect1_dropShadow"/>
<feBlend mode="normal" in="SourceGraphic" in2="effect1_dropShadow" result="shape"/>
</filter>
</defs>
</svg>
